<svg width="324" height="91" viewBox="0 0 324 91" fill="none" xmlns="http://www.w3.org/2000/svg">
<path d="M72.85 44.7C74.9166 45.4667 76.5166 46.5833 77.65 48.05C78.7833 49.5167 79.35 51.2833 79.35 53.35C79.35 56.4167 78.0833 58.8 75.55 60.5C73.0166 62.1667 69.35 63 64.55 63H44.85V28H63.55C68.2166 28 71.7333 28.8333 74.1 30.5C76.5 32.1667 77.7 34.3833 77.7 37.15C77.7 38.7833 77.2833 40.25 76.45 41.55C75.65 42.85 74.45 43.9 72.85 44.7ZM56.45 36.25V41.45H61.95C64.5166 41.45 65.8 40.5833 65.8 38.85C65.8 37.1167 64.5166 36.25 61.95 36.25H56.45ZM63.55 54.75C66.15 54.75 67.45 53.8333 67.45 52C67.45 50.1667 66.15 49.25 63.55 49.25H56.45V54.75H63.55Z" fill="#FDD70E"/>
<path d="M100.272 63.8C94.9052 63.8 90.7219 62.35 87.7219 59.45C84.7219 56.55 83.2219 52.4833 83.2219 47.25V28H95.0219V46.9C95.0219 49.4667 95.4719 51.3333 96.3719 52.5C97.3052 53.6667 98.6385 54.25 100.372 54.25C102.105 54.25 103.422 53.6667 104.322 52.5C105.255 51.3333 105.722 49.4667 105.722 46.9V28H117.322V47.25C117.322 52.4833 115.822 56.55 112.822 59.45C109.822 62.35 105.639 63.8 100.272 63.8Z" fill="#FDD70E"/>
<path d="M122.731 28H134.531V53.85H150.331V63H122.731V28Z" fill="#FDD70E"/>
<path d="M153.59 28H165.39V53.85H181.19V63H153.59V28Z" fill="#FDD70E"/>
<path d="M212.45 44.7C214.516 45.4667 216.116 46.5833 217.25 48.05C218.383 49.5167 218.95 51.2833 218.95 53.35C218.95 56.4167 217.683 58.8 215.15 60.5C212.616 62.1667 208.95 63 204.15 63H184.45V28H203.15C207.816 28 211.333 28.8333 213.7 30.5C216.1 32.1667 217.3 34.3833 217.3 37.15C217.3 38.7833 216.883 40.25 216.05 41.55C215.25 42.85 214.05 43.9 212.45 44.7ZM196.05 36.25V41.45H201.55C204.116 41.45 205.4 40.5833 205.4 38.85C205.4 37.1167 204.116 36.25 201.55 36.25H196.05ZM203.15 54.75C205.75 54.75 207.05 53.8333 207.05 52C207.05 50.1667 205.75 49.25 203.15 49.25H196.05V54.75H203.15Z" fill="#FDD70E"/>
<path d="M246.971 56.9H233.671L231.321 63H219.321L234.621 28H246.221L261.521 63H249.321L246.971 56.9ZM243.721 48.4L240.321 39.6L236.921 48.4H243.721Z" fill="#FDD70E"/>
<path d="M278.405 54.2H275.205V63H263.405V28H280.255C283.488 28 286.305 28.5333 288.705 29.6C291.105 30.6667 292.955 32.2 294.255 34.2C295.555 36.2 296.205 38.5333 296.205 41.2C296.205 43.7 295.638 45.8833 294.505 47.75C293.371 49.6167 291.738 51.1 289.605 52.2L296.955 63H284.355L278.405 54.2ZM284.305 41.2C284.305 39.9 283.905 38.9 283.105 38.2C282.305 37.4667 281.105 37.1 279.505 37.1H275.205V45.3H279.505C281.105 45.3 282.305 44.95 283.105 44.25C283.905 43.5167 284.305 42.5 284.305 41.2Z" fill="#FDD70E"/>
<path d="M0 0H324V13H0V0Z" fill="#FDD70E"/>
<path d="M0 78H324V91H0V78Z" fill="#FDD70E"/>
<path d="M311 0H324V91H311V0Z" fill="#FDD70E"/>
<path d="M17 0H30V91H17V0Z" fill="#FDD70E"/>
</svg>
